<?xml version="1.0" encoding="UTF-8"?>
<!DOCTYPE svg PUBLIC "-//W3C//DTD SVG 1.1//EN" "http://www.w3.org/Graphics/SVG/1.1/DTD/svg11.dtd">
<!-- Creator: CorelDRAW 2021.5 -->
<svg xmlns="http://www.w3.org/2000/svg" xml:space="preserve" width="210mm" height="297mm" version="1.1" style="shape-rendering:geometricPrecision; text-rendering:geometricPrecision; image-rendering:optimizeQuality; fill-rule:evenodd; clip-rule:evenodd"
viewBox="0 0 21000 29700"
 xmlns:xlink="http://www.w3.org/1999/xlink"
 xmlns:xodm="http://www.corel.com/coreldraw/odm/2003">
 <defs>
  <style type="text/css">
   <![CDATA[
    .str3 {stroke:black;stroke-width:50;stroke-miterlimit:22.9256}
    .str2 {stroke:#D6D0C7;stroke-width:20;stroke-miterlimit:22.9256}
    .str1 {stroke:black;stroke-width:120;stroke-miterlimit:22.9256}
    .str0 {stroke:black;stroke-width:10;stroke-miterlimit:22.9256}
    .fil13 {fill:none}
    .fil4 {fill:black}
    .fil2 {fill:#2D2D2D}
    .fil14 {fill:#2D2D2D}
    .fil11 {fill:#5E5B57}
    .fil10 {fill:#6A6A6A}
    .fil9 {fill:#969696}
    .fil1 {fill:#B1B1B1}
    .fil6 {fill:#CCCCCC}
    .fil8 {fill:#D6D0C7}
    .fil0 {fill:#D6D0C7}
    .fil3 {fill:#ECECEC}
    .fil5 {fill:#ECECEC}
    .fil7 {fill:#FEFEFE}
    .fil12 {fill:black;fill-rule:nonzero}
   ]]>
  </style>
 </defs>
 <g id="Katman_x0020_1">
  <metadata id="CorelCorpID_0Corel-Layer"/>
  <g id="_3090817445856">
   <circle class="fil0" cx="10492.87" cy="14850.54" r="8520.46"/>
   <g>
    <path class="fil1" d="M10402.68 13941.88c510.89,-126.04 736.48,655.15 238.44,818.27 -589.78,193.17 -800.6,-679.57 -238.44,-818.27zm-71.35 -104.44c-695.28,218.34 -362.55,1259.3 330.34,1047.15 689.43,-211.09 372.04,-1267.72 -330.34,-1047.15z"/>
    <polygon class="fil1" points="9572.4,16812.27 9833.33,16810.8 9879.49,17167.76 10362,17155.54 10348.09,16762.4 9531.14,16769.73 "/>
    <polygon class="fil1" points="10686.51,17160.41 10975.41,17167.78 10960.36,16821.81 10683.51,16812.86 "/>
    <path class="fil1" d="M10369.58 14657.27c242.87,167.44 459.18,-95.42 467.48,-347.54l-55.41 -99.29c5.39,123.8 -77.09,177.93 -168.64,272.61 -92.27,95.42 -113.61,149.06 -243.43,174.22z"/>
    <path class="fil1" d="M10193.29 14492.07c-1.83,-161.15 269.03,-349.78 380.27,-469.97 -273.72,-26.1 -540.61,211.4 -380.27,469.97z"/>
   </g>
   <g>
    <path class="fil2 str0" d="M10767.01 12777.5c186.77,-437.07 -169.08,-774.24 -216.46,-1116.32 268.48,147.95 707.54,799.74 797.75,1129.84l-581.29 -13.52zm-1222.62 -101.38c-126.09,17.88 -87.19,11 -63.67,195.08 241.7,29.1 1856.06,36.8 2042.28,-9.06 -160.7,-518.83 -656.88,-1036.22 -1007.07,-1392.65 -193.79,-20.32 -22.53,-16.73 -111.29,49.44 66.83,41.16 160.58,-33.25 4.6,182.78 -137.84,190.92 -699.71,932.03 -864.85,974.41z"/>
    <path class="fil2 str0" d="M8713.73 17744.16c94.84,-594.15 62.82,-1215.06 520.19,-1425.76l-135.4 -506.87c-340.9,102.16 -448.28,474.75 -481.84,802.41 -29.47,287.83 -37.28,891.46 97.05,1130.22z"/>
    <path class="fil2 str0" d="M11914.91 16390.89c134.2,270.71 194.21,343.52 255.92,666.51 43.58,228.05 60.81,574.36 127.52,771.26l47.08 -510.88c-18.81,-416.8 37.79,-947.44 -261.01,-1295.65l-169.51 368.76z"/>
   </g>
   <g>
    <path class="fil3" d="M11116.02 14168.8c171.99,162.61 35.85,551.15 -114.69,702.49 -161.64,162.49 -466.56,252.99 -667.24,112.52 -201.99,-102.05 -356.98,-180.24 -437.5,-412.28 -174.87,-503.86 293.64,-988.9 813.17,-814.31 257.25,86.45 282.71,207.04 406.26,411.58zm-2010.16 811.39c22.84,484.03 181.97,1232.37 375.54,1665.25l875.28 7.48 4.48 -967.83 253.65 -7.29 39.5 22.56c325.27,33.35 332.37,138.61 522.1,325.03 208.01,-330.58 291.63,-967.4 340.66,-1369.25 42.2,-345.95 39.03,-1357.83 104.57,-1493.09l-19.95 -158.48 -1655.84 -17.08 144.47 120.78c-46.73,384.69 -548.08,2113.11 -863.54,2243.83 -112.98,-145.8 -0.3,-225.86 -120.92,-371.91z"/>
    <path class="fil3" d="M10816.58 16637.68c-37.12,-108.87 -62.81,-124.53 -165.67,-169.41l4.13 171.5 161.54 -2.09z"/>
   </g>
   <path class="fil4" d="M3262.26 10976.15c221.6,-654.22 1342.88,-1893.75 1937.14,-2401.37 270.98,-231.47 527.45,-420.53 828.17,-618.42 1312.72,-863.85 2907.08,-1332.92 4482.71,-1329.11 2212.75,5.34 4587.82,992.3 6035.73,2670.55 330.63,383.23 1050.42,1227.54 1187.35,1694.43 -280.84,300.6 -802.91,689.31 -1153.11,956.67 -803.29,613.26 -1709.48,1155.67 -2631.3,1567.27 -488.3,218.03 -1279.69,477.62 -1485.73,573.57 869.44,-2.54 2708.61,-991.42 3524.5,-1499.81 306.24,-190.82 688.88,-520.37 961.97,-664.95 -153.67,410.79 -873.68,907.02 -1274.24,1132.71 495.79,-197.13 863.51,-430.16 1277.9,-770.87 614.96,-505.64 606.35,-858.56 823.79,-1219.69 276.16,370.83 604.45,1442.1 720.32,1921.48 182,752.95 244.41,1607.83 194.32,2380.27 -279.21,4305.34 -3845.39,7678.81 -8180.97,7681.69 -4312.89,2.86 -7907.16,-3326.75 -8206.1,-7665.51 -88.06,-1278.18 217.36,-3229.01 908.04,-4324.66 92.13,127.74 187.15,453.77 328.98,657.3 348.08,499.52 1172.14,1193.18 1677.4,1280.07 -367.38,-258.44 -1012.55,-632.63 -1156.34,-1047.18 121.01,37.74 820.72,547.83 1009.01,671.97 828.45,546.13 2694.5,1472.48 3546.79,1488.79 -144.53,-7.9 -1304.69,-471.88 -1534.56,-574.21 -1094.47,-487.21 -3060.93,-1707.07 -3821.77,-2560.99zm6657.19 -4506.84c-4649.49,323.7 -8142.4,4337.05 -7795.97,8994.61 343.78,4622.11 4368.49,8097.27 8997.61,7750.27 4616.5,-346.06 8078.13,-4351.22 7751.59,-8973.71 -325.9,-4613.6 -4339.93,-8092.35 -8953.23,-7771.17z"/>
   <circle class="fil5" cx="10493.83" cy="14355.92" r="815.34"/>
   <circle class="fil6 str1" cx="10493.83" cy="14355.92" r="602.97"/>
   <g>
    <path class="fil7" d="M9105.86 14980.19c120.62,146.05 7.94,226.11 120.92,371.91 315.46,-130.72 816.81,-1859.14 863.54,-2243.83l-144.47 -120.78 -527.88 5.84c-264.82,432.12 -358.07,1481.64 -312.11,1986.86z"/>
    <path class="fil7" d="M10193.29 14492.07c46.23,104.57 69.15,130.06 176.29,165.2 129.82,-25.16 151.16,-78.8 243.43,-174.22 91.55,-94.68 174.03,-148.81 168.64,-272.61 -25.83,-141.13 -74.32,-132.78 -208.09,-188.34 -111.24,120.19 -382.1,308.82 -380.27,469.97z"/>
    <path class="fil7" d="M9544.39 12676.12c165.14,-42.38 727.01,-783.49 864.85,-974.41 155.98,-216.03 62.23,-141.62 -4.6,-182.78 -97.27,143.45 -328.09,307.47 -472.56,518.79 -128.02,187.24 -294.79,433.6 -387.69,638.4z"/>
   </g>
   <path class="fil4" d="M9780.37 6116.42c4801.73,-395.05 9049.22,3178.6 9444.47,7982.04 396.3,4816.13 -3145.85,9034.87 -7956.04,9466.96 -4817.12,432.71 -9070.98,-3151.86 -9496.39,-7957.54 -428.4,-4839.4 3177.13,-9094.03 8007.96,-9491.46zm271.32 -202.8c-2381.87,160.18 -4494.11,1039.95 -6117.11,2843.45 -1668.97,1854.57 -2503.81,4060.44 -2381.26,6572.03 236.35,4843.94 4558.77,8806.67 9435.85,8456.09 4985.02,-358.33 8657.1,-4387.78 8446.41,-9403.49 -145.56,-3465.14 -2394.95,-6575.81 -5594.48,-7847.77 -1235.91,-491.33 -2471.17,-708.95 -3789.41,-620.31z"/>
   <path class="fil4" d="M10975.41 17167.78l-288.9 -7.37c-101.01,-44.96 -61.33,-278.79 -46.98,-393.11l807.01 -6.4c-0.05,109.74 -93.64,316.31 -160.93,402.31l-310.2 4.57zm-208.4 -4390.28l581.29 13.52c-90.21,-330.1 -529.27,-981.89 -797.75,-1129.84 47.38,342.08 403.23,679.25 216.46,1116.32zm1147.9 3613.39l169.51 -368.76c298.8,348.21 242.2,878.85 261.01,1295.65l-47.08 510.88c-66.71,-196.9 -83.94,-543.21 -127.52,-771.26 -61.71,-322.99 -121.72,-395.8 -255.92,-666.51zm-2035.42 776.87l-182.38 -3.85c-60.27,-97.85 -123.14,-240.07 -124.71,-351.64l-41.26 -42.54 816.95 -7.33 13.91 393.14 -482.51 12.22zm-1165.76 576.4c-134.33,-238.76 -126.52,-842.39 -97.05,-1130.22 33.56,-327.66 140.94,-700.25 481.84,-802.41l135.4 506.87c-457.37,210.7 -425.35,831.61 -520.19,1425.76zm392.13 -2763.97c-45.96,-505.22 47.29,-1554.74 312.11,-1986.86l527.88 -5.84 1655.84 17.08c88.54,703.37 377.63,990.85 294.09,1975.84 -45.98,542.23 -172.32,1166.13 -379.16,1664.59 -139.28,61.3 -710.36,54.91 -899.23,12.42l-2.58 -979.62 -253.65 7.29 -4.48 967.83 -875.28 -7.48c-193.57,-432.88 -352.7,-1181.22 -375.54,-1665.25zm438.53 -2304.07c92.9,-204.8 259.67,-451.16 387.69,-638.4 144.47,-211.32 375.29,-375.34 472.56,-518.79 88.76,-66.17 -82.5,-69.76 111.29,-49.44 350.19,356.43 846.37,873.82 1007.07,1392.65 -186.22,45.86 -1800.58,38.16 -2042.28,9.06 -23.52,-184.08 -62.42,-177.2 63.67,-195.08zm-495.68 2867.11c-116.97,-3.29 -318.35,-75.47 -378.48,-167l272.14 -21.72c-105.14,-83.21 -486.14,-111.41 -614.24,-89.64 79.08,303.79 649.73,195.98 761.7,390.03 -54.32,108.12 -106.15,58.57 -222.56,150.91 -75.37,59.78 -117.79,134.73 -191.33,197.73l-481.33 -66.86 608.22 -155.36 -1283.32 -22.89c139.96,254.28 844.49,311.55 1104.2,354.71l-116.93 431.15c-247.62,47.16 -542.88,112.78 -776.95,57.92 78.59,-94.93 283.31,-112.2 374.74,-197.64 -205.2,19.43 -1073.89,317.61 -1207.4,425.12 698.64,118.55 1018.34,-136.73 1603.8,-186.47 24.08,281.12 27.35,1499.52 243.75,1647.86 173.62,-156.12 15.01,-1750.13 532.78,-1841.98l341.22 819.15 737.97 7.56 6.06 1042.99 266.83 -1.87 5.19 -1037.88 720.03 -7.75c169.8,-227.26 207.08,-592.63 354.06,-817.49 525.23,37.65 352.66,1613.15 531.39,1832.55 155.42,-67.59 175.77,-561.11 200.32,-737.2 46.67,-334.76 37.72,-583.27 49.59,-909.21 432.68,30.89 863.33,305.61 1607.97,192.45 -75.91,-111.42 -1115.6,-429.48 -1309.96,-462.99 129.35,76.01 395.54,121.55 476.21,232.91 -228.3,51.93 -544.37,0.49 -771.44,-72.72l-117.99 -411.4c286.95,-75.58 914.43,-76.64 1121.15,-348.03l-1309.36 -3.08 608.11 152.14 -488.3 98.31c-305.4,-415.56 -268.17,-166.17 -407.43,-372.04 166.87,-189.19 695.35,-66.4 779.61,-395.74l-341.56 115.55c-78.41,106 -279.31,181.01 -403.22,175.64 -0.64,-202.94 50.95,-421.48 62.05,-630.63 34.9,-657.04 -50.12,-1257.75 -280.45,-1876.11 -185.77,-498.73 -743.27,-1420.89 -1205.25,-1677.86 -447.59,167.32 -1051.89,1204.64 -1226.09,1656.21 -508.4,1317.9 -193.09,2165.91 -235.5,2530.67z"/>
   <path class="fil4" d="M5969.53 14702.47l-35.36 -68.74c-357.13,-12.29 -2018.93,-280.7 -2166.13,-224.3 370.25,237.05 660.82,409.62 1089.22,544.27 312.98,98.38 1050.54,245.93 1364.96,219.54 -210.52,-32.47 -1044.27,-277.51 -1169.87,-425.61l917.18 -45.16z"/>
   <path class="fil4 str2" d="M15240.55 13978.12l935.87 -87.49c-106.9,153.12 -953.17,479.36 -1142.35,546.07 279.81,-3.21 1140.7,-277.29 1420.21,-391.07 371.54,-151.24 806.67,-414.23 1100.2,-706.33 -151.88,6.4 -2009.03,551.28 -2313.93,638.82z"/>
   <path class="fil4" d="M5973.6 14431.69c-132.88,-14.98 -1029.65,-409.32 -1143.91,-512.01 170.23,-71.89 686.34,66.52 922.38,60.39 -330.44,-116.72 -765.27,-202.91 -1126.41,-312.48 -344.69,-104.58 -794.8,-292.71 -1142.43,-320.71 173.88,390.77 1945.74,1119.04 2490.37,1084.81z"/>
   <path class="fil4 str2" d="M14598.49 15493.69c244.55,25.38 631.74,5.04 823.4,115.83 -487.41,188.92 -1039.08,228.64 -1562.55,265.01 610.25,198.89 2139.87,23.39 2707.42,-535.38 -214.14,-16.07 -691.52,65.89 -946.43,82.63 -249.85,16.4 -842.15,0.86 -1021.84,71.91z"/>
   <path class="fil4 str2" d="M14913.83 14666.46l1033.43 74.23c-135.27,188.12 -924.41,368.92 -1158.43,435.71 781.82,-0.11 1853.47,-298.11 2458.13,-785.19l-2333.13 275.25z"/>
   <path class="fil4" d="M7153.4 15876.74c-527.73,-47.55 -1090.23,-70.6 -1574.35,-273.3 140.7,-81.17 682.31,-95.99 900.14,-114.03l-2039.9 -158.32c193.66,227.81 874.73,484.5 1155.64,542.46 352.87,72.82 1226.46,94.02 1558.47,3.19z"/>
   <path class="fil4" d="M5505.69 13742.79c-271.06,-235.64 -966.6,-467.54 -1105.63,-818.53 273.5,1.39 466.83,130.32 716.96,152.1 -110.09,-85.45 -1610.02,-718.34 -1769.51,-738.46 71.66,176.52 713.08,711.87 918.92,842.07 227.98,144.21 1009.15,521.71 1239.26,562.82z"/>
   <path class="fil4 str2" d="M15801.71 13104.16c267.46,-21.73 538.09,-203.19 805.51,-171.37 -109.62,229.03 -979.91,761.78 -1215,863.19 409.58,-149.4 873.39,-352.81 1263.36,-573.04 317.32,-179.19 828.71,-612.15 990.52,-887.38 -180,30.91 -1660.52,663.1 -1844.39,768.6z"/>
   <path class="fil4" d="M8632.67 15671.4l-1254.31 -455.53 738.69 9.61c-264.44,-113.55 -924.89,-157.96 -1582.83,-407.7 151.76,534.69 1578.57,842.85 2098.45,853.62z"/>
   <path class="fil4 str2" d="M13385.11 14539.41l817.29 -152.26c-372.95,195.41 -792.83,465.2 -1177.79,651.04 552.75,-21.49 1741.92,-577.12 1931.35,-1116.8 -197.04,61.43 -1205.44,561.18 -1570.85,618.02z"/>
   <path class="fil4" d="M7475.07 14342.04l-1089.64 -678.64 793.19 180.81 -1157.41 -513.78c-127.78,-63.64 -245.11,-165.38 -370.26,-218.16 119.09,534.88 1326.32,1177.64 1824.12,1229.77z"/>
   <path class="fil4 str2" d="M12853.92 15210.19l758.77 -22.81c-145.14,113.51 -1030.33,428.97 -1248.72,480.55 571.32,25.91 1829.4,-315.69 2102.9,-828.24 -163.39,18.05 -558.52,156.67 -786.79,205.31 -273.69,58.3 -552.88,115.31 -826.16,165.19z"/>
   <path class="fil4" d="M7985.86 15041.25c-405.4,-213.35 -772.18,-400.09 -1180.5,-645.55l801.03 152.82c-455.09,-139.11 -1141.25,-403.59 -1562.08,-646.69 85.18,539.92 1442.12,1094.08 1941.55,1139.42z"/>
   <path class="fil4 str2" d="M13814.62 13830.99l786.02 -192.89c-190.92,152.91 -973.29,682.46 -1141.29,723.4 220.62,-12.82 903.64,-315.46 1107.85,-439.95 425.68,-259.49 553.28,-366.15 796.95,-799.35 -14.29,2.24 -1365.85,692.36 -1549.53,708.79z"/>
   <path class="fil4 str2" d="M14729.4 16347.72c-265,129.42 -1046.69,-28.01 -1380.97,-10.05 652.74,64 1433.39,379.26 2097.5,116.61 -138.61,-132.11 -970.86,-305.9 -1191.77,-308.14 108.28,61.89 387.32,112.62 475.24,201.58z"/>
   <path class="fil4" d="M5551.94 16447.93c573.49,301.76 1789.59,-119.04 2113.02,-107.55 -372.34,-33.35 -1073.79,151.72 -1390.27,8.88 103.41,-105.41 573.35,-230.78 734.6,-259.73 -210.78,1.1 -1282.57,238.62 -1457.35,358.4z"/>
   <path class="fil4" d="M10139.09 20852.96c-134.55,-76.28 -106.41,-230.53 18.44,-296.79 99.53,104.46 83.8,217.17 -18.44,296.79zm109.85 72.57c103.55,-135.15 93.83,-269.78 39.86,-431.98 -459.78,-135.47 -490.32,527.16 -39.86,431.98z"/>
   <path class="fil4" d="M8739.68 15036.08c-161.66,-51.92 -412.32,-128.99 -529.01,-269.32l308.28 -8.16c-186.3,-71.52 -442.2,-140.27 -643.52,-134.56 81.24,250.81 605.32,397.97 864.25,412.04z"/>
   <path class="fil4" d="M8418.53 14509.9c-196.46,-82.54 -329.97,-148.98 -506.16,-293.36l327.5 14.47c-184.56,-85.78 -419.59,-155.2 -625.61,-172.71 95.84,255.5 538.07,419.99 804.27,451.6z"/>
   <path class="fil4" d="M10977.85 20511.15c138.37,87.33 53.77,-35.5 217.72,71 -73.08,221.22 -173.7,113.12 -192.03,334.25l347.8 -29.69c-62.37,-174.15 -4.39,-27.45 -159.99,-105.5 117.27,-124.34 146.21,-143.66 84.67,-321.13 -99.87,-26.26 -254.1,-62.44 -298.17,51.07z"/>
   <path class="fil4 str2" d="M12752.26 14222.27l326.68 -12.62c-130.9,139.67 -328.02,228.1 -487.83,298.65 222,-29.66 728.09,-217.36 804.49,-445.41 -212.38,-9.5 -430.75,105.48 -643.34,159.38z"/>
   <path class="fil4" d="M9016.59 20342.23l184.53 100.01c-84.81,211.35 -253.94,113.7 -295.48,278.73 64.5,40.79 63.42,36.86 145.84,58.62 182.51,48.17 153.86,17.91 206.22,-8.57 -93.15,-105.87 -35.91,-31.53 -156.65,-101.23 329.57,-169.08 205.82,-320.47 92.51,-354.42 -154.87,-46.41 -122.76,-7.38 -176.97,26.86z"/>
   <path class="fil4 str2" d="M12482.26 14743.8l312.53 15.19c-84.53,124.72 -394.2,240.62 -536.41,277.91 210.66,-3.56 844.94,-190.23 848.45,-426.51l-624.57 133.41z"/>
   <path class="fil4" d="M11969.82 20363.44c124.64,117.34 -8.84,-17.04 131.19,52.17 41.2,141.18 27.3,229.3 142.69,282.31 65.95,-102.96 7.6,-220.5 -77.22,-457.96 -99.77,19.05 -127.23,40.85 -196.66,123.48z"/>
   <path class="fil8" d="M5459.92 8325.52l55.44 0c161.17,-123.36 325.59,-238.86 505.91,-357.52 1312.72,-863.85 2907.08,-1332.92 4482.71,-1329.11 2212.75,5.34 4587.82,992.3 6035.73,2670.55 330.63,383.23 1050.42,1227.54 1187.35,1694.43 -280.84,300.6 -802.91,689.31 -1153.11,956.67 -803.29,613.26 -1709.48,1155.67 -2631.3,1567.27 -488.3,218.03 -1279.69,477.62 -1485.73,573.57 869.44,-2.54 2708.61,-991.42 3524.5,-1499.81 306.24,-190.82 688.88,-520.37 961.97,-664.95 -153.67,410.79 -873.68,907.02 -1274.24,1132.71 495.79,-197.13 863.51,-430.16 1277.9,-770.87 614.96,-505.64 606.35,-858.56 823.79,-1219.69 276.16,370.83 604.45,1442.1 720.32,1921.48 182,752.95 244.41,1607.83 194.32,2380.27 -279.21,4305.34 -3845.39,7678.81 -8180.97,7681.69 -4312.89,2.86 -7907.16,-3326.75 -8206.1,-7665.51 -88.06,-1278.18 217.36,-3229.01 908.04,-4324.66 92.13,127.74 187.15,453.77 328.98,657.3 348.08,499.52 1172.14,1193.18 1677.4,1280.07 -367.38,-258.44 -1012.55,-632.63 -1156.34,-1047.18 121.01,37.74 820.72,547.83 1009.01,671.97 828.45,546.13 2694.5,1472.48 3546.79,1488.79 -144.53,-7.9 -1304.69,-471.88 -1534.56,-574.21 -1094.47,-487.21 -3060.93,-1707.07 -3821.77,-2560.99 221.6,-654.22 1342.88,-1893.75 1937.14,-2401.37 89.82,-76.72 178.04,-148.79 266.82,-218.06l0 -42.84zm5066.82 3055.63l-54.11 0c-444.01,202.05 -1024.56,1201.94 -1194.72,1643.05 -508.4,1317.9 -193.09,2165.91 -235.5,2530.67 -116.97,-3.29 -318.35,-75.47 -378.48,-167l272.14 -21.72c-105.14,-83.21 -486.14,-111.41 -614.24,-89.64 79.08,303.79 649.73,195.98 761.7,390.03 -54.32,108.12 -106.15,58.57 -222.56,150.91 -75.37,59.78 -117.79,134.73 -191.33,197.73l-481.33 -66.86 608.22 -155.36 -1283.32 -22.89c139.96,254.28 844.49,311.55 1104.2,354.71l-116.93 431.15c-247.62,47.16 -542.88,112.78 -776.95,57.92 78.59,-94.93 283.31,-112.2 374.74,-197.64 -205.2,19.43 -1073.89,317.61 -1207.4,425.12 698.64,118.55 1018.34,-136.73 1603.8,-186.47 24.08,281.12 27.35,1499.52 243.75,1647.86 173.62,-156.12 15.01,-1750.13 532.78,-1841.98l341.22 819.15 737.97 7.56 6.06 1042.99 266.83 -1.87 5.19 -1037.88 720.03 -7.75c169.8,-227.26 207.08,-592.63 354.06,-817.49 525.23,37.65 352.66,1613.15 531.39,1832.55 155.42,-67.59 175.77,-561.11 200.32,-737.2 46.67,-334.76 37.72,-583.27 49.59,-909.21 432.68,30.89 863.33,305.61 1607.97,192.45 -75.91,-111.42 -1115.6,-429.48 -1309.96,-462.99 129.35,76.01 395.54,121.55 476.21,232.91 -228.3,51.93 -544.37,0.49 -771.44,-72.72l-117.99 -411.4c286.95,-75.58 914.43,-76.64 1121.15,-348.03l-1309.36 -3.08 608.11 152.14 -488.3 98.31c-305.4,-415.56 -268.17,-166.17 -407.43,-372.04 166.87,-189.19 695.35,-66.4 779.61,-395.74l-341.56 115.55c-78.41,106 -279.31,181.01 -403.22,175.64 -0.64,-202.94 50.95,-421.48 62.05,-630.63 34.9,-657.04 -50.12,-1257.75 -280.45,-1876.11 -182.73,-490.57 -725.13,-1390.82 -1182.51,-1664.7zm4196.36 4978.21c-87.92,-88.96 -366.96,-139.69 -475.24,-201.58 220.91,2.24 1053.16,176.03 1191.77,308.14 -664.11,262.65 -1444.76,-52.61 -2097.5,-116.61 334.28,-17.96 1115.97,139.47 1380.97,10.05zm-9177.46 100.21c174.78,-119.78 1246.57,-357.3 1457.35,-358.4 -161.25,28.95 -631.19,154.32 -734.6,259.73 316.48,142.84 1017.93,-42.23 1390.27,-8.88 -323.43,-11.49 -1539.53,409.31 -2113.02,107.55zm9046.55 -954.24c179.69,-71.05 771.99,-55.51 1021.84,-71.91 254.91,-16.74 732.29,-98.7 946.43,-82.63 -567.55,558.77 -2097.17,734.27 -2707.42,535.38 523.47,-36.37 1075.14,-76.09 1562.55,-265.01 -191.66,-110.79 -578.85,-90.45 -823.4,-115.83zm-7445.09 383.05c-332.01,90.83 -1205.6,69.63 -1558.47,-3.19 -280.91,-57.96 -961.98,-314.65 -1155.64,-542.46l2039.9 158.32c-217.83,18.04 -759.44,32.86 -900.14,114.03 484.12,202.7 1046.62,225.75 1574.35,273.3zm5700.52 -666.55c273.28,-49.88 552.47,-106.89 826.16,-165.19 228.27,-48.64 623.4,-187.26 786.79,-205.31 -273.5,512.55 -1531.58,854.15 -2102.9,828.24 218.39,-51.58 1103.58,-367.04 1248.72,-480.55l-758.77 22.81zm-4221.25 461.21c-519.88,-10.77 -1946.69,-318.93 -2098.45,-853.62 657.94,249.74 1318.39,294.15 1582.83,407.7l-738.69 -9.61 1254.31 455.53zm4474.16 -1061.01c-3.51,236.28 -637.79,422.95 -848.45,426.51 142.21,-37.29 451.88,-153.19 536.41,-277.91l-312.53 -15.19 624.57 -133.41zm-4367.15 425.69c-258.93,-14.07 -783.01,-161.23 -864.25,-412.04 201.32,-5.71 457.22,63.04 643.52,134.56l-308.28 8.16c116.69,140.33 367.35,217.4 529.01,269.32zm8507.28 -644.87c-604.66,487.08 -1676.31,785.08 -2458.13,785.19 234.02,-66.79 1023.16,-247.59 1158.43,-435.71l-1033.43 -74.23 2333.13 -275.25zm-11312.79 242.52l205.94 49.44 -170.58 19.3 -917.18 45.16c125.6,148.1 959.35,393.14 1169.87,425.61 -314.42,26.39 -1051.98,-121.16 -1364.96,-219.54 -428.4,-134.65 -718.97,-307.22 -1089.22,-544.27 147.2,-56.4 1809,212.01 2166.13,224.3zm2484.36 -123.83c-266.2,-31.61 -708.43,-196.1 -804.27,-451.6 206.02,17.51 441.05,86.93 625.61,172.71l-327.5 -14.47c176.19,144.38 309.7,210.82 506.16,293.36zm4333.73 -287.63c212.59,-53.9 430.96,-168.88 643.34,-159.38 -76.4,228.05 -582.49,415.75 -804.49,445.41 159.81,-70.55 356.93,-158.98 487.83,-298.65l-326.68 12.62zm632.85 317.14c365.41,-56.84 1373.81,-556.59 1570.85,-618.02 -189.43,539.68 -1378.6,1095.31 -1931.35,1116.8 384.96,-185.84 804.84,-455.63 1177.79,-651.04l-817.29 152.26zm-5399.25 501.84c-499.43,-45.34 -1856.37,-599.5 -1941.55,-1139.42 420.83,243.1 1106.99,507.58 1562.08,646.69l-801.03 -152.82c408.32,245.46 775.1,432.2 1180.5,645.55zm-2012.26 -609.56c-544.63,34.23 -2316.49,-694.04 -2490.37,-1084.81 347.63,28 797.74,216.13 1142.43,320.71 361.14,109.57 795.97,195.76 1126.41,312.48 -236.04,6.13 -752.15,-132.28 -922.38,-60.39 114.26,102.69 1011.03,497.03 1143.91,512.01zm9266.95 -453.57c304.9,-87.54 2162.05,-632.42 2313.93,-638.82 -293.53,292.1 -728.66,555.09 -1100.2,706.33 -279.51,113.78 -1140.4,387.86 -1420.21,391.07 189.18,-66.71 1035.45,-392.95 1142.35,-546.07l-935.87 87.49zm-7765.48 363.92c-497.8,-52.13 -1705.03,-694.89 -1824.12,-1229.77 125.15,52.78 242.48,154.52 370.26,218.16l1157.41 513.78 -793.19 -180.81 1089.64 678.64zm6339.55 -511.05c183.68,-16.43 1535.24,-706.55 1549.53,-708.79 -243.67,433.2 -371.27,539.86 -796.95,799.35 -204.21,124.49 -887.23,427.13 -1107.85,439.95 168,-40.94 950.37,-570.49 1141.29,-723.4l-786.02 192.89zm1987.09 -726.83c183.87,-105.5 1664.39,-737.69 1844.39,-768.6 -161.81,275.23 -673.2,708.19 -990.52,887.38 -389.97,220.23 -853.78,423.64 -1263.36,573.04 235.09,-101.41 1105.38,-634.16 1215,-863.19 -267.42,-31.82 -538.05,149.64 -805.51,171.37zm-10296.02 638.63c-230.11,-41.11 -1011.28,-418.61 -1239.26,-562.82 -205.84,-130.2 -847.26,-665.55 -918.92,-842.07 159.49,20.12 1659.42,653.01 1769.51,738.46 -250.13,-21.78 -443.46,-150.71 -716.96,-152.1 139.03,350.99 834.57,582.89 1105.63,818.53z"/>
   <path class="fil8" d="M9919.45 6469.31c4613.3,-321.18 8627.33,3157.57 8953.23,7771.17 326.54,4622.49 -3135.09,8627.65 -7751.59,8973.71 -4629.12,347 -8653.83,-3128.16 -8997.61,-7750.27 -346.43,-4657.56 3146.48,-8670.91 7795.97,-8994.61zm-139.08 -352.89c-4830.83,397.43 -8436.36,4652.06 -8007.96,9491.46 425.41,4805.68 4679.27,8390.25 9496.39,7957.54 4810.19,-432.09 8352.34,-4650.83 7956.04,-9466.96 -395.25,-4803.44 -4642.74,-8377.09 -9444.47,-7982.04z"/>
   <path class="fil8" d="M9879.49 17167.76l-46.16 -356.96 -260.93 1.47c1.57,111.57 64.44,253.79 124.71,351.64l182.38 3.85z"/>
   <path class="fil8" d="M10139.09 20852.96c102.24,-79.62 117.97,-192.33 18.44,-296.79 -124.85,66.26 -152.99,220.51 -18.44,296.79z"/>
   <path class="fil9" d="M10686.51 17160.41l-3 -347.55 276.85 8.95 15.05 345.97 310.2 -4.57c67.29,-86 160.88,-292.57 160.93,-402.31l-807.01 6.4c-14.35,114.32 -54.03,348.15 46.98,393.11z"/>
   <path class="fil10" d="M11516.62 16645l-700.04 -7.32 -161.54 2.09 -4.13 -171.5 3.4 -767.91 -39.5 -22.56 2.58 979.62c188.87,42.49 759.95,48.88 899.23,-12.42z"/>
   <polygon class="fil11" points="5969.53,14702.47 6140.11,14683.17 5934.17,14633.73 "/>
   <g>
    <path class="fil12" d="M6532.1 10692.03c19.31,18.41 34.17,37.76 44.86,58.06 10.55,20.15 17.46,40.67 20.61,61.43 3.02,20.89 2.68,41.87 -0.86,63.06 -3.7,21.34 -10.32,42.33 -19.47,63.37 -9.28,20.91 -21.09,41.59 -35.42,61.79 -14.2,20.33 -31.73,41.29 -52.46,63.03l-137.33 144.03c-8.72,9.16 -18.8,14.29 -30.24,15.4 -11.44,1.12 -23.31,-4.2 -35.6,-15.92l-472.87 -450.86c-12.3,-11.73 -18.17,-23.32 -17.6,-34.8 0.56,-11.48 5.21,-21.79 13.94,-30.94l129.56 -135.88c31.63,-33.19 61.22,-58.49 88.76,-76.2 27.53,-17.72 54.38,-28.98 80.68,-33.94 26.44,-5.1 52.19,-3.47 77.4,4.73 25.36,8.07 49.63,23.28 73.09,45.64 13.16,12.55 23.82,26 32.27,40.33 8.44,14.34 14.26,29.44 17.7,44.73 3.45,15.57 4.24,31.35 2.54,47.74 -1.58,16.26 -5.8,32.43 -12.82,48.67 17.45,-12.57 35.94,-22.24 55.36,-28.58 19.43,-6.32 39.21,-9.03 59.36,-8.11 20.28,0.77 40.53,5.6 60.58,14.07 20.19,8.6 39.51,21.56 57.96,39.15zm-364.39 -75.46c-10.87,-10.37 -22.23,-17.93 -34.1,-22.96 -11.71,-4.89 -23.78,-6.84 -35.91,-5.57 -12.13,1.27 -24.47,5.62 -37.3,12.77 -12.68,7.29 -27.21,19.38 -43.44,36.4l-52.91 55.5 140.74 134.19 58.5 -61.36c15.14,-15.88 25.42,-30.38 30.56,-43.5 5.28,-12.99 7.63,-25.77 7.05,-38.33 -0.58,-12.57 -3.93,-24.51 -9.66,-35.98 -6,-11.46 -13.66,-21.76 -23.53,-31.16zm259.58 193.42c-12.59,-12 -25.94,-20.64 -39.91,-26.03 -13.82,-5.26 -27.98,-7.02 -42.48,-5.28 -14.36,1.6 -29.33,7 -45.05,16.03 -15.57,9.18 -32.98,23.71 -52.2,43.88l-62.19 65.22 154.48 147.29 75.82 -79.53c14.59,-15.3 25.29,-29.68 32.1,-43.4 6.8,-13.44 10.53,-27.08 11.6,-40.82 0.93,-13.57 -1.06,-26.94 -6.27,-40.38 -5.21,-13.16 -13.89,-25.52 -25.9,-36.98zm1134.19 -1072.24c33.49,52.24 56.98,103.14 70.46,152.73 13.48,49.58 16.68,97.06 9.24,142.2 -7.16,45.21 -24.87,87.54 -52.92,126.9 -28.23,39.45 -67.19,74.99 -116.94,106.88 -49.08,31.47 -95.98,52.39 -140.63,62.94 -44.82,10.66 -87.75,10.71 -129.16,-0.06 -41.14,-10.72 -80.88,-32.42 -119.05,-65.23 -38.17,-32.81 -75.16,-76.93 -110.78,-132.5 -32.64,-50.91 -55.59,-100.99 -68.74,-150.08 -13.16,-49.08 -16.04,-96.05 -8.6,-141.2 7.27,-45.04 24.97,-87.38 53.03,-126.72 28.11,-39.64 67.13,-75.45 117.21,-107.56 47.74,-30.6 93.88,-51.27 138.59,-62.09 44.54,-10.71 87.63,-10.88 129.05,-0.1 41.48,10.5 81.17,31.77 119.36,63.87 38.28,32.25 74.9,75.45 109.88,130.02zm-130.59 92.88c-21.23,-33.1 -43.2,-61.51 -65.74,-85.33 -22.55,-23.8 -46.3,-41.45 -71.14,-52.74 -24.86,-11.29 -51.09,-15.61 -78.71,-12.92 -27.52,2.85 -56.88,14.17 -88,34.11 -31.44,20.16 -53.89,43 -67.28,68.25 -13.56,25.36 -20.45,52.32 -20.74,80.44 -0.28,28.12 5.4,57.11 17.03,86.97 11.74,30.04 27,59.69 45.99,89.31 22.08,34.44 44.58,63.68 67.34,87.82 22.76,24.14 46.61,41.95 71.51,53.69 24.79,11.56 50.75,15.82 78.16,12.79 27.31,-3.18 56.73,-14.77 88.17,-34.93 31.45,-20.16 54,-42.83 67.39,-68.08 13.66,-25.2 20.56,-52.15 20.63,-80.6 0.07,-28.46 -5.82,-57.78 -17.67,-87.98 -11.85,-30.2 -27.53,-60.52 -46.94,-90.8zm1344.98 -277.98c4.13,10.49 7.24,19.46 9.14,26.99 1.92,7.53 2.77,13.99 2.85,19.06 -0.03,5.32 -1,9.32 -3.11,12.06 -2.03,2.92 -4.61,5 -7.73,6.23l-410.9 162.02c-14.35,5.66 -26.98,5.96 -37.96,0.73 -10.98,-5.22 -19.63,-15.84 -25.86,-31.65l-9.28 -23.53c-2.9,-7.35 -5.07,-13.94 -6.46,-20.18 -1.48,-6.44 -2.33,-12.9 -2.59,-20.02 -0.18,-6.93 0.33,-14.79 1.55,-23.55 1.4,-8.83 3.14,-19.51 5.22,-32.01l101.32 -535.56 -268.05 105.69c-4.42,1.74 -8.45,2.27 -12.19,1.41 -3.92,-0.78 -7.54,-2.97 -11.23,-6.4 -3.77,-3.61 -7.49,-8.74 -11.24,-15.55 -3.74,-6.8 -7.51,-15.3 -11.5,-25.41 -4.2,-10.66 -7.4,-19.82 -9.37,-27.53 -2.05,-7.9 -2.9,-14.37 -2.61,-19.58 0.2,-5.39 1.36,-9.46 3.83,-12.34 2.22,-3.01 5.53,-5.37 9.95,-7.11l384.98 -151.79c14.7,-5.8 27,-6.4 36.96,-1.62 9.96,4.78 17.66,14.07 23.02,27.67l10.44 26.48c3.77,9.55 6.74,18.16 8.57,25.51 1.84,7.35 2.87,14.8 3.09,22.36 0.4,7.49 -0.04,15.53 -1.26,24.29 -1.11,8.51 -2.99,18.81 -5.23,30.95l-99.22 527.93 291.22 -114.82c6.8,-2.68 13.61,-0.49 20.7,6.7 6.9,7.27 14.61,21.44 22.95,42.57zm1215.58 -564.29c8.67,68.23 7.24,127.57 -4.42,178.47 -11.69,50.68 -32.17,93.32 -61.58,128.34 -29.45,34.82 -67.17,62.51 -112.99,82.88 -45.82,20.37 -101.75,34.84 -167.63,43.21l-177.42 22.54c-12.74,1.62 -23.8,-0.75 -33.38,-7.11 -9.57,-6.35 -15.42,-17.96 -17.56,-34.82l-82.35 -648.14c-2.14,-16.86 0.62,-29.56 8.3,-38.11 7.69,-8.55 17.8,-13.61 30.54,-15.23l190.56 -24.21c66.26,-8.42 123.53,-7.73 171.56,1.9 48.24,9.62 89.97,27.62 125.4,54 35.45,26.57 64.34,61.15 86.49,103.76 22.18,42.8 36.99,93.51 44.48,152.52zm-155.78 25.17c-4.48,-35.29 -12.73,-67.31 -24.83,-96.65 -12.06,-29.14 -28.51,-53.56 -49.56,-73.39 -21.05,-19.84 -46.6,-34.32 -76.59,-43.06 -30.2,-8.71 -68.23,-10.25 -114.7,-4.35l-76.27 9.69 64.11 504.62 78.62 -9.98c41.37,-5.26 75.6,-14.98 102.45,-29.35 26.89,-14.17 48.55,-33.47 64.82,-57.45 16.09,-23.95 26.79,-52.6 32.11,-85.95 5.33,-33.35 5.27,-71.39 -0.16,-114.13zm1566.06 14.27c-4.71,61.87 -16.6,116.66 -35.69,164.37 -19.08,47.7 -45.11,87.54 -78.23,119.11 -32.93,31.78 -72.55,54.93 -118.65,69.46 -46.29,14.51 -98.79,19.44 -157.71,14.96 -58.14,-4.43 -108.19,-15.95 -150.19,-34.41 -42.2,-18.48 -76.51,-44.27 -103.09,-77.8 -26.4,-33.33 -45.07,-74.59 -55.8,-123.76 -10.72,-49.18 -13.69,-106.68 -8.68,-172.5 4.58,-60.29 16.41,-114.1 35.45,-161.21 19.04,-47.11 45.02,-86.36 78.14,-117.93 32.92,-31.58 72.54,-54.73 118.64,-69.26 46.31,-14.72 99.01,-19.83 158.33,-15.32 56.55,4.3 105.84,15.58 148.05,33.86 42.02,18.26 76.52,44.07 103.1,77.61 26.8,33.35 45.7,74.23 56.86,122.84 11.15,48.81 14.38,105.35 9.47,169.98zm-160.19 -4.46c2.98,-39.21 2.53,-75.11 -1.13,-107.7 -3.67,-32.59 -12.01,-60.97 -25.05,-84.95 -13.05,-23.98 -31.4,-43.21 -55.07,-57.7 -23.69,-14.29 -53.95,-22.93 -90.8,-25.73 -37.25,-2.83 -68.93,1.89 -94.82,13.99 -26.09,12.09 -47.82,29.47 -64.98,51.74 -17.15,22.28 -30.07,48.85 -38.75,79.7 -8.71,31.05 -14.38,63.92 -17.05,98.99 -3.1,40.8 -2.74,77.69 0.9,110.67 3.64,32.97 11.97,61.56 24.78,85.92 12.83,24.16 31,43.18 54.71,57.27 23.72,13.9 54.19,22.36 91.43,25.19 37.25,2.83 68.9,-1.69 94.79,-13.79 26.08,-11.9 47.82,-29.27 65,-51.94 17.19,-22.69 30.14,-49.64 38.85,-80.89 8.72,-31.25 14.46,-64.9 17.19,-100.77zm1551.31 136.62c-3.54,10.49 -7.02,19.54 -10.55,26.9 -3.54,7.35 -6.93,13.09 -10.14,17.01 -3.27,4.11 -6.22,6.66 -9.23,7.51 -3.05,1.06 -6.19,1.04 -9.37,-0.03 -4.87,-1.65 -11.4,-7.62 -19.67,-17.72 -8.45,-10.15 -20.02,-22.21 -35.02,-35.84 -15,-13.63 -33.31,-27.95 -55.42,-42.74 -22.13,-14.8 -49.26,-27.72 -81.45,-38.62 -34.26,-11.59 -67.36,-16.11 -99.06,-13.7 -31.94,2.55 -61.42,11.36 -88.42,26.42 -27.06,15.25 -51.03,36.14 -72.1,63.23 -20.99,26.91 -37.63,58.83 -50.17,95.9 -13.74,40.61 -20.41,78.21 -20.26,112.89 0.4,34.56 6.83,65.52 19.02,93.02 12.44,27.36 30.51,51.01 54.05,70.86 23.72,19.91 52.09,35.36 84.84,46.44 16.1,5.45 32.65,8.96 49.58,10.73 17.18,1.63 33.68,0.96 49.63,-1.78l55.99 -165.48 -134.23 -45.42c-6.54,-2.21 -10.21,-8.05 -11.16,-17.55 -0.78,-9.44 2.05,-23.93 8.76,-43.76 3.42,-10.12 6.7,-18.61 9.98,-25.21 3.28,-6.61 6.68,-11.72 9.76,-15.27 3.32,-3.67 6.59,-5.9 9.71,-7.15 3.32,-1.16 6.63,-1.09 9.82,-0.01l239.61 81.07c5.81,1.97 10.73,4.68 14.53,8.26 3.99,3.64 6.9,7.97 9.06,13.29 2.04,5.07 3.2,10.88 2.99,17.07 -0.09,6.44 -1.37,13.31 -3.84,20.6l-95.77 283.05c-3.73,11.05 -8.84,19.96 -15.56,26.87 -6.53,6.97 -16.61,10.86 -30.17,11.49 -13.44,0.88 -29.88,0.74 -49.25,0.02 -19.31,-0.89 -38.99,-2.55 -59.1,-5.39 -19.98,-2.58 -40.03,-6.24 -59.88,-11.08 -19.73,-4.58 -39.33,-10.18 -58.79,-16.77 -56.72,-19.19 -104.67,-44.59 -144.09,-76.08 -39.23,-31.42 -69.25,-67.86 -89.87,-109.27 -20.63,-41.4 -31.67,-87.07 -33.07,-137.19 -1.4,-50.14 7.41,-103.28 26.47,-159.62 19.7,-58.23 46.17,-107.47 79.41,-147.76 33.12,-40.54 71.32,-71.42 114.48,-92.92 43.15,-21.49 90.26,-33.08 141.76,-34.85 51.32,-1.84 104.97,6.72 160.75,25.59 30.89,10.45 58.08,21.96 81.9,34.81 23.62,12.79 44,25.32 60.82,37.89 16.7,12.33 30.21,24.21 40.22,35.31 10.13,11.36 16.71,20.26 19.81,27.15 3.35,6.76 4.43,15.27 3.32,25.32 -0.85,9.94 -4.42,24.17 -10.63,42.51zm2.19 -346.83c-7.79,23.02 -18.37,42.6 -31.63,58.98 -13.27,16.37 -28.95,28.8 -47.42,37.15 -18.29,8.42 -38.93,12.7 -62.05,12.6 -22.94,-0.05 -47.92,-4.53 -75.06,-13.71 -28.45,-9.63 -51.9,-21.74 -70.02,-36 -18.12,-14.27 -31.74,-30.14 -40.84,-47.63 -8.86,-17.59 -13.46,-36.67 -13.49,-57.54 -0.03,-20.88 3.75,-42.55 11.42,-65.2 2.53,-7.49 7.42,-11.47 14.8,-12.31 7.32,-0.66 19.8,1.9 37.78,7.98 17.41,5.89 29.13,11.32 35.35,16.34 6.3,4.85 8.51,10.61 6.87,17.35 -1.6,6.55 -2.45,15.24 -2.5,25.86 -0.05,10.63 1.66,19.76 5.19,27.83 3.77,7.96 9.36,14.86 16.72,20.89 7.34,6.04 17.13,11.02 29.3,15.14 15.73,5.32 29.65,6.69 41.85,3.93 12.14,-2.57 22.22,-7.71 30.01,-15.31 7.97,-7.52 13.81,-15.55 17.79,-24.22 3.98,-8.67 9.44,-13.71 16.63,-15.23 7.38,-1.48 19.94,0.89 37.72,6.91 18.72,6.33 30.95,12.14 36.73,17.23 5.73,5.28 7.38,11.47 4.85,18.96zm964.2 1531.99c-3.64,14.11 -7.12,25.02 -10.49,32.49 -3.38,7.46 -8.01,11.76 -13.75,13.01 -5.8,0.99 -13.51,-0.9 -23.18,-5.94 -9.52,-4.93 -22.38,-12.7 -38.18,-22.83 -16.64,-10.67 -29.51,-19.16 -38.34,-25.52 -8.99,-6.47 -15.34,-11.95 -19.37,-16.65 -3.87,-4.59 -5.92,-8.72 -6.21,-12.66 -0.39,-3.78 0.18,-8.34 1.68,-13.24l39.85 -153.34 -237.91 -152.52 -118.79 97.79c-4.32,3.81 -8.44,6.57 -12.52,8.18 -4.02,1.87 -9.01,1.97 -14.85,0.8 -5.83,-1.15 -13.22,-4.25 -22.31,-9.13 -9.08,-4.89 -20.61,-11.8 -34.58,-20.76 -14.97,-9.6 -26.3,-17.57 -34.14,-24 -7.84,-6.44 -12.18,-12.5 -12.99,-18.19 -0.87,-5.96 1.38,-12.03 6.74,-18.21 5.38,-6.19 13.63,-13.57 24.82,-22.59l553.23 -435.26c5.35,-4.32 10.56,-7.32 15.35,-8.94 4.74,-1.89 10.5,-1.73 17.33,0.07 6.99,1.91 15.56,5.75 26.03,11.76 10.3,5.9 23.72,14.27 40.35,24.93 19.14,12.27 34.33,22.25 45.33,30 11.16,7.86 19.23,14.68 24.38,20.56 5.15,5.88 7.94,11.43 8.52,16.74 0.32,5.36 -0.28,11.78 -2.39,19.12l-163.61 684.33zm7.45 -648.76l-0.49 -0.32 -259.88 212.04 177.01 113.49 83.36 -325.21zm929.89 1506.55c-6.44,6.14 -13.25,10.45 -20.44,13.21 -7.19,2.49 -14.21,3.44 -21.32,2.85 -6.84,-0.58 -13.5,-2.7 -19.98,-6.35 -6.62,-3.79 -12.25,-8.26 -17.29,-13.55l-44.87 -47.06c-9.4,-9.86 -16.44,-19.26 -21.4,-28.18 -4.69,-8.92 -7.39,-18.91 -7.96,-29.83 -0.72,-11.06 0.84,-23.46 4.39,-37.49 3.4,-13.9 8.85,-31.1 16.18,-51.48l125.28 -376.37c7.66,-22.33 16.47,-45.74 26.15,-70.53 9.67,-24.79 19.88,-48.17 30.19,-70.29l-0.82 -0.86c-19.08,20.37 -38.28,40.33 -57.77,59.99 -19.33,19.53 -39.8,39.58 -60.97,59.76l-283.93 270.7c-2.71,2.59 -5.96,4.34 -9.76,4.94 -3.64,0.48 -8.09,-0.48 -13.21,-2.69 -5.12,-2.22 -11.17,-6.28 -18.17,-11.9 -6.99,-5.62 -15.34,-13.5 -24.88,-23.51 -9.41,-9.87 -16.75,-18.44 -22.03,-25.69 -5.28,-7.26 -8.9,-13.35 -10.74,-18.42 -2.11,-5.09 -2.57,-9.57 -1.65,-12.91 0.92,-3.61 2.82,-6.78 5.53,-9.37l487.47 -464.75c13.16,-12.54 26.71,-18.1 40.65,-16.65 13.81,1.32 26.1,7.62 36.87,18.92l56.32 59.07c10.09,10.59 17.83,20.42 22.93,29.49 5.09,9.07 8.22,18.36 9.53,28.04 1.31,9.67 0.62,20.71 -2.04,32.8 -2.53,11.96 -6.91,25.98 -12.74,41.63l-97.88 294.56c-6.15,17.61 -12.29,34.93 -18.15,51.99 -5.86,17.05 -11.86,33.96 -18.27,50.45 -6.26,16.62 -12.52,32.96 -18.63,48.89 -6.12,16.21 -12.37,31.99 -18.75,47.64l0.41 0.42c18.78,-19.54 38.55,-39.75 59.31,-60.36 20.9,-20.75 41.08,-40.25 60.39,-58.66l254.6 -242.74c2.72,-2.59 6.11,-4.2 10.03,-4.66 3.65,-0.47 8.38,0.48 13.77,2.7 5.54,2.38 11.59,6.43 18.45,12.19 6.85,5.75 15.05,13.77 24.6,23.79 9.13,9.58 16.48,17.86 21.9,24.99 5.42,7.11 8.91,13.07 10.6,18.28 1.56,5.07 2.01,9.55 1.1,12.88 -0.93,3.61 -2.68,6.65 -5.54,9.38l-487.46 464.74z"/>
    <path class="fil12" d="M9372.94 20884.09c-2.21,7.73 -4.38,14.3 -6.6,19.53 -2.24,5.24 -4.56,9.27 -6.79,12.45 -2.33,3 -4.78,4.94 -7.25,5.85 -2.6,0.87 -5.24,0.85 -7.81,0.12l-295.91 -84.58c-5.84,-1.67 -10.7,-3.64 -14.6,-5.93 -3.9,-2.29 -6.84,-5.34 -8.57,-9.05 -1.81,-3.9 -2.48,-8.78 -2.03,-14.97 0.44,-6.18 2.08,-13.93 4.72,-23.16 2.52,-8.82 5.05,-16.17 7.65,-22.17 2.59,-6.01 5.54,-11.19 9.11,-15.46 3.57,-4.26 7.64,-8.23 12.22,-11.92 4.75,-3.77 10.38,-7.6 17.41,-11.6l116.36 -69.77c23.08,-13.5 42.27,-26.22 57.51,-38.45 15.2,-12.09 27.74,-23.63 37.45,-34.5 9.72,-10.87 17.08,-21.24 22.41,-31.16 5.33,-9.93 9.33,-19.79 12.04,-29.29 2.49,-8.68 3.5,-17.35 2.89,-26.04 -0.5,-8.5 -2.77,-16.48 -6.53,-23.87 -3.75,-7.39 -9.26,-13.81 -16.57,-19.57 -7.21,-5.57 -16.37,-9.96 -27.63,-13.18 -15.61,-4.46 -30.03,-6.38 -43.23,-5.9 -13.2,0.49 -25.06,1.94 -35.55,4.23 -10.66,2.38 -19.54,4.69 -26.8,7.01 -7.31,2.47 -12.65,3.15 -16.04,2.18 -2.44,-0.7 -4.25,-2.1 -5.54,-4.23 -1.33,-2 -1.92,-5.1 -1.95,-9.07 0.13,-4.07 0.57,-9.23 1.71,-15.8 1.11,-6.43 3.02,-14.12 5.58,-23.07 1.74,-6.1 3.35,-11.22 4.96,-15.31 1.56,-3.96 3.26,-7.29 4.96,-10.17 1.53,-2.8 3.39,-5.2 5.41,-7.12 1.97,-1.79 5.06,-3.84 9.25,-6.17 4.28,-2.14 11.55,-4.47 21.77,-6.84 10.38,-2.46 22.6,-4.1 36.94,-4.99 14.34,-0.89 29.71,-0.75 46.38,0.49 16.5,1.34 33.24,4.36 50.2,9.21 26.87,7.68 49.23,17.74 67.38,30.26 18,12.49 32.02,26.63 41.86,42.5 9.84,15.87 15.54,32.91 17.33,51.33 1.77,18.41 -0.05,37.12 -5.52,56.25 -4.76,16.68 -11.09,32.64 -18.82,47.89 -7.91,15.35 -19.52,30.81 -34.91,46.67 -15.36,15.72 -35.54,32.41 -60.33,49.83 -24.79,17.42 -56.6,36.81 -95.43,58.14l-77.67 44.29 202.7 57.93c2.71,0.78 4.92,2.28 6.63,4.54 1.88,2.15 3.08,5.13 3.74,8.99 0.7,3.72 0.54,8.38 -0.2,14.03 -0.74,5.66 -2.19,12.29 -4.29,19.62zm1008.93 -70.85c-3.24,42.63 -9.54,80.79 -19.04,114.6 -9.5,33.8 -22.98,62.21 -40.31,85.24 -17.45,23.01 -38.99,40.06 -64.86,50.97 -25.89,11.05 -56.91,15.2 -92.94,12.46 -36.58,-2.78 -66.36,-11.27 -89.33,-25.6 -22.96,-14.34 -40.59,-33.8 -52.74,-58.35 -12.28,-24.57 -19.95,-54.02 -23.01,-88.36 -3.04,-34.34 -2.94,-72.96 0.32,-115.74 3.21,-42.36 9.64,-80.5 19.3,-114.44 9.66,-33.93 23.13,-62.35 40.46,-85.38 17.45,-23.01 38.99,-40.05 64.87,-50.97 25.88,-11.05 56.76,-15.21 92.51,-12.49 36.57,2.78 66.36,11.27 89.47,25.62 23.1,14.35 40.87,33.81 53.01,58.38 12.3,24.56 19.82,54 22.74,88.33 2.9,34.32 2.8,72.95 -0.45,115.73zm-109.34 -2.65c1.93,-25.33 2.92,-47.62 2.97,-67 0.07,-19.52 -0.76,-36.42 -2.5,-51 -1.87,-14.43 -4.61,-26.8 -8.08,-36.97 -3.47,-10.18 -8.07,-18.59 -13.82,-24.83 -5.6,-6.38 -12.18,-11.12 -19.72,-14.24 -7.56,-2.98 -16.05,-4.9 -25.47,-5.61 -16.18,-1.23 -29.99,1.68 -41.27,8.6 -11.29,7.08 -20.48,18.12 -28.01,33.4 -7.38,15.15 -13.21,34.23 -17.38,57.4 -4.31,23.17 -7.64,50.23 -9.99,81.19 -2.88,37.85 -3.72,69.34 -2.65,94.33 1.21,25.15 4.5,45.2 9.85,60.47 5.36,15.13 13.01,26.04 22.69,32.72 9.83,6.69 21.84,10.57 36.34,11.67 10.69,0.82 20.39,-0.14 28.96,-3.03 8.56,-2.74 16.12,-7.41 22.97,-13.68 6.71,-6.42 12.57,-14.61 17.46,-24.85 5.01,-10.1 9.31,-21.94 12.88,-35.39 3.72,-13.59 6.72,-28.93 9.02,-46.16 2.3,-17.09 4.17,-36.2 5.75,-57.02zm1076.27 199.53c0.6,8.01 0.85,14.93 0.58,20.61 -0.28,5.69 -1.07,10.27 -2.05,14.03 -1.14,3.62 -2.77,6.3 -4.77,8 -2.14,1.72 -4.62,2.62 -7.29,2.82l-306.87 23.32c-6.06,0.46 -11.3,0.3 -15.76,-0.5 -4.44,-0.79 -8.26,-2.63 -11.17,-5.51 -3.05,-3.03 -5.37,-7.38 -7.1,-13.33 -1.72,-5.96 -2.88,-13.8 -3.61,-23.37 -0.69,-9.14 -0.86,-16.91 -0.51,-23.45 0.35,-6.53 1.32,-12.41 3.19,-17.65 1.86,-5.24 4.3,-10.38 7.32,-15.42 3.14,-5.18 7.11,-10.73 12.3,-16.92l84.94 -105.8c16.96,-20.67 30.55,-39.26 40.6,-56.02 10.06,-16.61 17.82,-31.78 23.16,-45.34 5.34,-13.57 8.65,-25.85 10.21,-37 1.56,-11.16 1.88,-21.8 1.13,-31.65 -0.68,-9 -2.74,-17.48 -6.32,-25.42 -3.42,-7.81 -8.32,-14.51 -14.41,-20.13 -6.08,-5.62 -13.48,-9.74 -22.33,-12.6 -8.69,-2.73 -18.81,-3.67 -30.49,-2.78 -16.18,1.23 -30.37,4.43 -42.58,9.46 -12.22,5.04 -22.84,10.51 -31.88,16.3 -9.18,5.93 -16.7,11.17 -22.71,15.87 -6,4.85 -10.77,7.34 -14.29,7.61 -2.53,0.19 -4.71,-0.5 -6.66,-2.04 -1.94,-1.42 -3.57,-4.13 -4.98,-7.84 -1.28,-3.86 -2.66,-8.85 -3.87,-15.41 -1.19,-6.42 -2.07,-14.29 -2.77,-23.57 -0.48,-6.33 -0.75,-11.69 -0.66,-16.09 0.1,-4.24 0.53,-7.96 1.13,-11.25 0.46,-3.16 1.37,-6.05 2.6,-8.55 1.23,-2.36 3.41,-5.36 6.54,-9 3.27,-3.49 9.28,-8.2 18.04,-13.96 8.89,-5.91 19.77,-11.7 32.92,-17.5 13.13,-5.81 27.6,-11.01 43.67,-15.63 15.94,-4.47 32.69,-7.44 50.28,-8.78 27.86,-2.11 52.33,-0.43 73.69,5.01 21.21,5.47 39.26,13.87 54,25.34 14.74,11.47 25.99,25.48 34.06,42.13 8.05,16.65 12.83,34.83 14.34,54.67 1.31,17.3 0.91,34.46 -1.05,51.45 -2.09,17.14 -7.61,35.67 -16.55,55.89 -8.95,20.06 -22.08,42.71 -39.29,67.66 -17.21,24.93 -40.33,54.15 -69.34,87.63l-57.49 68.48 210.21 -15.98c2.82,-0.21 5.41,0.43 7.8,1.96 2.51,1.36 4.66,3.75 6.63,7.14 1.94,3.24 3.41,7.66 4.67,13.22 1.28,5.57 2.21,12.29 2.79,19.89zm964.16 -219.41c2.13,7.47 3.51,13.82 4.17,19.21 0.66,5.39 0.78,9.91 0.14,13.31 -0.46,3.52 -1.61,6.19 -3.02,7.91 -1.52,1.9 -3.5,3.2 -5.8,3.86l-284.52 81.32c-2.03,0.58 -4.26,0.48 -6.55,-0.33 -2.11,-0.72 -4.35,-2.41 -6.75,-5.11 -2.34,-2.56 -4.63,-6.46 -6.91,-11.38 -2.29,-4.92 -4.48,-11.04 -6.61,-18.51 -2.17,-7.6 -3.73,-14.05 -4.57,-19.53 -0.79,-5.36 -0.87,-9.74 -0.31,-13.42 0.6,-3.55 1.58,-6.32 3.05,-8.35 1.34,-2 3.31,-3.3 5.62,-3.96l96.06 -27.46 -95.63 -334.58 -69.6 69.21c-5.16,4.56 -9.64,7.89 -13.24,9.65 -3.78,1.67 -6.95,1.85 -9.92,0.2 -2.83,-1.69 -5.41,-5.06 -7.81,-10.39 -2.41,-5.33 -5.07,-13.09 -7.93,-23.12 -1.83,-6.38 -3.21,-11.72 -4.1,-15.86 -0.88,-4.15 -1.22,-7.87 -0.95,-11.03 0.1,-3.26 0.93,-5.99 2.29,-8.44 1.22,-2.4 3.25,-5.04 5.76,-8.09l90 -103.07c1.04,-1.48 2.44,-2.76 4.15,-3.98 1.84,-1.26 4.26,-2.54 7.41,-3.87 2.99,-1.31 7.13,-2.78 12.24,-4.39 5.12,-1.6 11.77,-3.51 20.04,-5.87 10.05,-2.87 18.22,-5.06 24.58,-6.44 6.36,-1.37 11.3,-2.06 14.69,-2 3.54,0.02 5.91,0.66 7.46,1.98 1.56,1.31 2.64,3.06 3.34,5.5l121.42 424.81 84.12 -24.04c2.44,-0.7 4.81,-0.64 7.27,0.27 2.46,0.91 4.75,2.75 7.13,5.44 2.42,2.83 4.67,6.59 6.83,11.56 2.19,5.09 4.28,11.39 6.45,18.99z"/>
   </g>
   <path class="fil6" d="M11910.04 14715.03c19.23,-323.01 -16.63,-637.9 -69.91,-907.7 -31.26,-208.03 -75.5,-396.38 -135.89,-522.84 -56.66,-175.04 -102.55,-279.92 -102.55,-279.92 0,0 -4.49,136.96 -11.64,328.75 -27.7,271.64 -36.13,781.92 -55.98,1115.93 -2.63,27.25 -4.32,53.87 -5.24,79.8 -3.52,48.33 -7.4,91.31 -11.76,127.09 -49.03,401.85 -132.65,1038.67 -340.66,1369.25 -189.73,-186.42 -196.83,-291.68 -522.1,-325.03l-3.4 767.91c102.86,44.88 128.55,60.54 165.67,169.41l700.04 7.32c206.84,-498.46 333.18,-1122.36 379.16,-1664.59 5.47,-64.44 8.54,-155.52 8.47,-262.98l5.79 -2.4z"/>
   <circle class="fil13 str1" cx="10493.83" cy="14355.92" r="388.3"/>
   <rect class="fil14 str3" x="10356.45" y="15677.8" width="258.36" height="2652.64"/>
  </g>
 </g>
</svg>
